<svg xmlns="http://www.w3.org/2000/svg" xmlns:xlink="http://www.w3.org/1999/xlink" width="32" height="32" viewBox="0 0 32 32">
  <defs>
    <rect id="layer51-a" width="31.626" height="31.624" rx="15.812"/>
    <filter id="layer51-b" width="209.5%" height="250%" x="-54%" y="-54.2%" filterUnits="objectBoundingBox">
      <feOffset dy="2" in="SourceAlpha" result="shadowOffsetOuter1"/>
      <feGaussianBlur in="shadowOffsetOuter1" result="shadowBlurOuter1" stdDeviation="2.5"/>
      <feColorMatrix in="shadowBlurOuter1" result="shadowMatrixOuter1" values="0 0 0 0 0   0 0 0 0 0   0 0 0 0 0  0 0 0 0.2 0"/>
      <feMerge>
        <feMergeNode in="shadowMatrixOuter1"/>
        <feMergeNode in="SourceGraphic"/>
      </feMerge>
    </filter>
    <polygon id="layer51-c" points="9.139 .555 .09 .555 .09 8.841 9.139 8.841"/>
    <polygon id="layer51-e" points="0 8.25 15.033 8.25 15.033 .323 0 .323"/>
  </defs>
  <g fill="none" fill-rule="evenodd">
    <use fill="#CA61FF" xlink:href="#layer51-a"/>
    <g filter="url(#layer51-b)" transform="translate(9 10)">
      <g transform="translate(.75 .195)">
        <mask id="layer51-d" fill="#fff">
          <use xlink:href="#layer51-c"/>
        </mask>
        <path fill="#FFF" d="M2.2293,8.01195 C1.9938,8.01195 1.80255,8.1972 1.80255,8.4267 C1.80255,8.6547 1.9938,8.8407 2.2293,8.8407 C2.46405,8.8407 2.65605,8.6547 2.65605,8.4267 C2.65605,8.19795 2.46405,8.01195 2.2293,8.01195 L2.2293,8.01195 Z M5.72805,2.04345 L7.25955,2.04345 L7.25955,0.5547 L5.72805,0.5547 L5.72805,2.04345 Z M7.6068,4.3722 L9.13905,4.3722 L9.13905,5.8617 L7.6068,5.8617 L7.6068,4.37295 L7.6068,4.3722 Z M5.72805,3.95295 L7.25955,3.95295 L7.25955,2.46495 L5.72805,2.46495 L5.72805,3.95295 Z M5.72805,4.3722 L7.25955,4.3722 L7.25955,5.8617 L5.72805,5.8617 L5.72805,4.37295 L5.72805,4.3722 Z M3.84855,3.95295 L5.38005,3.95295 L5.38005,2.46495 L3.84855,2.46495 L3.84855,3.95295 Z M3.84855,4.3722 L5.38005,4.3722 L5.38005,5.8617 L3.84855,5.8617 L3.84855,4.37295 L3.84855,4.3722 Z M1.9698,3.95295 L3.50055,3.95295 L3.50055,2.46495 L1.9698,2.46495 L1.9698,3.95295 Z M1.9698,4.3722 L3.50055,4.3722 L3.50055,5.8617 L1.9698,5.8617 L1.9698,4.37295 L1.9698,4.3722 Z M0.0903,4.3722 L1.62105,4.3722 L1.62105,5.8617 L0.0903,5.8617 L0.0903,4.37295 L0.0903,4.3722 Z" mask="url(#layer51-d)"/>
      </g>
      <g transform="translate(0 3.195)">
        <mask id="layer51-f" fill="#fff">
          <use xlink:href="#layer51-e"/>
        </mask>
        <path fill="#FFF" d="M2.9793,6.2139 C2.5323,6.2139 2.16855,5.8599 2.16855,5.4264 C2.16855,4.99215 2.5323,4.63815 2.9793,4.63815 C3.4263,4.63815 3.79005,4.99215 3.79005,5.42565 C3.79005,5.8599 3.42705,6.2139 2.9793,6.2139 L2.9793,6.2139 Z M14.8218,2.1429 C14.3073,1.8549 13.62255,1.81515 13.0398,1.98165 C12.9678,1.3794 12.56055,0.8514 12.0768,0.47265 L11.88405,0.32265 L11.72205,0.50415 C11.39805,0.86865 11.30205,1.4754 11.34555,1.9404 C11.37855,2.2824 11.4888,2.6304 11.70555,2.90565 C11.54055,3.00165 11.3538,3.07815 11.18655,3.13365 C10.8468,3.24465 10.47855,3.3069 10.12005,3.3069 L0.04305,3.3069 L0.02205,3.53265 C-0.0507,4.2864 0.0558,5.0409 0.37605,5.72865 L0.51405,6.00165 L0.52905,6.02715 C1.47705,7.59165 3.1413,8.25015 4.9548,8.25015 C8.4648,8.25015 11.3598,6.7269 12.68955,3.50715 C13.5783,3.55215 14.4873,3.2964 14.9223,2.47215 L15.03255,2.26065 L14.8218,2.1429 Z" mask="url(#layer51-f)"/>
      </g>
    </g>
  </g>
</svg>
