<svg xmlns="http://www.w3.org/2000/svg" width="48" height="48" viewBox="0 0 48 48">
    <path fill="#9B9B9B" fill-rule="evenodd" d="M29 29.68v-8.36H19v8.36h10zm0-10c.453 0 .847.16 1.18.48.333.32.5.707.5 1.16v8.36c0 .453-.167.84-.5 1.16-.333.32-.727.48-1.18.48H19c-.453 0-.847-.16-1.18-.48a1.55 1.55 0 0 1-.5-1.16v-8.36c0-.453.167-.84.5-1.16.333-.32.727-.48 1.18-.48h7.58V18a2.5 2.5 0 0 0-.35-1.28c-.233-.4-.55-.717-.95-.95a2.5 2.5 0 0 0-1.28-.35 2.5 2.5 0 0 0-1.28.35c-.4.233-.717.55-.95.95a2.5 2.5 0 0 0-.35 1.28h-1.6c0-.76.187-1.46.56-2.1.373-.64.88-1.147 1.52-1.52s1.34-.56 2.1-.56 1.46.187 2.1.56c.64.373 1.147.88 1.52 1.52s.56 1.34.56 2.1v1.68H29zm-5 7.5c-.453 0-.847-.167-1.18-.5a1.614 1.614 0 0 1-.5-1.18c0-.453.167-.847.5-1.18.333-.333.727-.5 1.18-.5.453 0 .847.167 1.18.5.333.333.5.727.5 1.18 0 .453-.167.847-.5 1.18-.333.333-.727.5-1.18.5z"/>
</svg>
