<?xml version="1.0" encoding="utf-8"?>
<!-- Generator: Adobe Illustrator 21.0.2, SVG Export Plug-In . SVG Version: 6.00 Build 0)  -->
<svg version="1.1" id="Layer_1" xmlns="http://www.w3.org/2000/svg" xmlns:xlink="http://www.w3.org/1999/xlink" x="0px" y="0px"
	 viewBox="0 0 172.6 107.9" style="enable-background:new 0 0 172.6 107.9;" xml:space="preserve">
<style type="text/css">
	.st0{fill:#444444;}
	.st1{fill:#f84a4a;}
</style>
<g>
	<path id="A_1_" class="st0" d="M16.5,57.1v12.3H20h3.5V57.1V44.8H20h-3.5V57.1z"/>
	<path class="st0" d="M16.5,39v3.2H20h3.5V39v-3.2H20h-3.5V39z"/>
	<path id="letterQ_5_" class="st1" d="M42.8,35c-3.2,0.3-6.5,1.7-9.1,3.7c-0.9,0.7-2.5,2.3-3.2,3.2c-1.9,2.5-3.1,5.3-3.5,8.5
		c-0.2,1-0.1,3.6,0,4.7c0.9,5.9,4.5,10.8,9.7,13.4c2.2,1.1,4.3,1.6,7,1.8c0.7,0.1,2.7,0,2.7-0.1c0,0-0.8-1.6-1.9-3.4l-1.9-3.4
		l-0.8-0.2c-4.2-1.1-7.2-4.3-8-8.6c-0.2-1-0.2-2.8,0-3.8c0.5-2.6,2-5.1,4-6.7c2.8-2.2,6.1-2.9,9.5-2c2,0.5,3.6,1.4,5.1,2.9
		c1.6,1.6,2.6,3.5,3,5.8c0.2,0.9,0.2,2.7,0,3.8c-0.6,3.6-3.1,6.7-6.4,8.1c-0.7,0.3-2.1,0.7-2.4,0.7c-0.4,0-0.4,0.1,1.5,3.5
		c1,1.9,2.2,4,2.6,4.7l0.7,1.3h4.4c2.4,0,4.4,0,4.4,0s-0.8-1.6-1.9-3.4c-1-1.8-1.9-3.4-1.9-3.5c0-0.1,0.3-0.4,0.7-0.8
		c2.7-2.7,4.4-6.1,5-10c0.2-1.3,0.2-3.8,0-5c-0.5-3.1-1.6-5.8-3.4-8.2c-2.7-3.6-6.9-6.1-11.5-6.8C46.3,35,43.8,34.9,42.8,35z"/>
	<path class="st0" d="M65.6,53.6c0,9.5,0,9.5,0.5,11.1c0.3,1.2,1.1,2.6,1.8,3.3c1.4,1.3,3.2,2,5.3,2.1c1.8,0.1,3.1-0.1,4.3-0.7
		c1.3-0.6,2.2-1.2,2.9-2.1l0.3-0.4v1.3v1.3h3.4h3.4l0-12.3l0-12.3l-3.4,0l-3.4,0l0,6.8c0,3.7-0.1,7.3-0.1,7.9
		c-0.1,1.8-0.4,2.7-1.2,3.6c-0.7,0.8-1.7,1.2-2.9,1.2c-1.1,0-1.9-0.3-2.6-1c-0.6-0.6-1-1.6-1.1-3.1c0-0.5-0.1-3.7-0.1-8.1v-7.3h-3.5
		h-3.5L65.6,53.6z"/>
	<path class="st0" d="M100,44.3c-2.1,0.2-4.5,1.3-6.1,2.9c-1.1,1.1-1.9,2.3-2.5,3.9c-0.7,1.8-1.1,3.5-1.1,5.7
		c-0.2,4.3,1,7.9,3.3,10.4c0.8,0.9,1.5,1.3,2.6,1.9c1.1,0.5,1.9,0.7,3.3,0.9c2.7,0.2,4.5-0.3,6.3-1.9c0.3-0.3,0.7-0.7,0.8-0.8
		l0.2-0.3l0.1,0.4c0,0.2,0.1,0.8,0.1,1.3l0,0.9h3.4h3.4V57.1V44.8h-3.3h-3.3l0,1.6l0,1.6l-0.3-0.6c-0.8-1.3-2.5-2.6-3.8-2.9
		C102.1,44.2,100.9,44.2,100,44.3z M103.2,50c0.7,0.2,1.2,0.5,1.9,1.2c0.7,0.7,0.9,1.1,1.3,2.2c0.7,2.3,0.6,6.2-0.3,8
		c-0.7,1.4-2,2.6-3.3,2.8c-0.9,0.2-2.3-0.2-3-0.7c-1.5-1.2-2.4-3.7-2.3-6.8c0-1.7,0.3-2.7,0.9-4c0.3-0.6,0.5-0.9,0.9-1.3
		C100.3,50.1,101.8,49.6,103.2,50z"/>
	<path class="st0" d="M120.2,41.2v3.6h-1.8h-1.8v2.7v2.7h1.8h1.8v9.6v9.6h3.5h3.5v-9.6v-9.6h1.6h1.6v-2.7v-2.7h-1.6h-1.6v-3.6v-3.6
		h-3.5h-3.5V41.2z"/>
	<path class="st0" d="M142.9,44.1c-1.4,0.1-2.6,0.4-3.6,0.8c-2.1,0.8-3.9,2.2-5.3,4.1c-0.5,0.7-1.4,2.3-1.7,3.4
		c-0.8,2.4-1,5.6-0.4,8.2c0.9,4.3,3.1,7.1,6.7,8.6c1.5,0.6,2.9,0.9,4.7,1c3.1,0.1,6.1-0.6,8.2-2c1.9-1.3,3.9-3.8,4.3-5.6l0-0.2h-3.6
		h-3.7l-0.5,0.5c-0.6,0.6-1.4,1.2-2.1,1.4c-0.5,0.2-0.8,0.2-1.7,0.2c-1.2,0-1.8-0.1-2.7-0.6c-0.6-0.3-1.5-1.3-1.9-2
		c-0.3-0.6-0.7-1.7-0.8-2.3l0-0.3h8.7h8.7l-0.1-1.6c-0.2-5.1-1.9-9.1-5.1-11.4c-1.1-0.9-3-1.6-4.6-1.9
		C145.8,44.2,143.5,44.1,142.9,44.1z M145.7,49.9c0.8,0.3,1.2,0.5,1.7,1c0.6,0.6,1.1,1.6,1.3,2.6l0.1,0.3h-4.9c-3.9,0-4.9,0-4.9-0.1
		c0-0.2,0.3-0.9,0.6-1.5c0.7-1.4,2-2.3,3.4-2.5C143.7,49.6,145,49.7,145.7,49.9"/>
</g>
</svg>
