<svg xmlns="http://www.w3.org/2000/svg" xmlns:xlink="http://www.w3.org/1999/xlink" width="32" height="32" viewBox="0 0 32 32">
  <defs>
    <rect id="layer45-a" width="30.97" height="30.965" x=".743" y=".708" rx="15.483"/>
    <filter id="layer45-b" width="254.5%" height="230.8%" x="-77.3%" y="-50%" filterUnits="objectBoundingBox">
      <feOffset dy="2" in="SourceAlpha" result="shadowOffsetOuter1"/>
      <feGaussianBlur in="shadowOffsetOuter1" result="shadowBlurOuter1" stdDeviation="2.5"/>
      <feColorMatrix in="shadowBlurOuter1" result="shadowMatrixOuter1" values="0 0 0 0 0   0 0 0 0 0   0 0 0 0 0  0 0 0 0.2 0"/>
      <feMerge>
        <feMergeNode in="shadowMatrixOuter1"/>
        <feMergeNode in="SourceGraphic"/>
      </feMerge>
    </filter>
  </defs>
  <g fill="none" fill-rule="evenodd">
    <use fill="#88C780" xlink:href="#layer45-a"/>
    <g fill="#FFF" filter="url(#layer45-b)" transform="translate(10 10)">
      <path d="M3.13935638,8.1094804 L2.27315768,8.1094804 C2.09057126,8.1094804 1.94385002,7.96167234 1.94385002,7.78017274 C1.94385002,7.59867313 2.09057126,7.4519519 2.27315768,7.4519519 L3.13935638,7.4519519 C3.32085598,7.4519519 3.46866404,7.59867313 3.46866404,7.78017274 C3.46866404,7.96167234 3.32085598,8.1094804 3.13935638,8.1094804 M3.13935638,4.82292474 L2.27315768,4.82292474 C2.09057126,4.82292474 1.94385002,4.67511668 1.94385002,4.49361708 C1.94385002,4.31211748 2.09057126,4.16430942 2.27315768,4.16430942 L3.13935638,4.16430942 C3.32085598,4.16430942 3.46866404,4.31211748 3.46866404,4.49361708 C3.46866404,4.67511668 3.32085598,4.82292474 3.13935638,4.82292474 M10.8601538,10.0809791 L0.9994,10.0809791 L0.9994,11.3927756 C0.9994,11.9916156 1.48629713,12.4795995 2.08622396,12.4795995 L9.77441666,12.4795995 C10.3743435,12.4795995 10.8612406,11.9916156 10.8612406,11.3927756 M10.8612406,1.08642396 C10.8612406,0.486497134 10.3743435,-0.0004 9.77441666,-0.0004 L2.08622396,-0.0004 C1.48629713,-0.0004 0.9994,0.486497134 0.9994,1.08642396 L0.9994,2.19281075 L10.8601538,2.19281075 M10.8601538,3.50786775 L0.9994,3.50786775 L0.9994,5.47936641 L10.8601538,5.47936641 M10.8601538,6.7944234 L0.9994,6.7944234 L0.9994,8.76592207 L10.8601538,8.76592207"/>
    </g>
  </g>
</svg>
