<?xml version="1.0" encoding="utf-8"?>
<!-- Generator: Adobe Illustrator 21.0.2, SVG Export Plug-In . SVG Version: 6.00 Build 0)  -->
<svg version="1.1" id="Layer_1" xmlns="http://www.w3.org/2000/svg" xmlns:xlink="http://www.w3.org/1999/xlink" x="0px" y="0px"
	 viewBox="0 0 172.6 107.9" style="enable-background:new 0 0 172.6 107.9;" xml:space="preserve">
<style type="text/css">
	.st0{fill:#fff;}
</style>
<path id="letterQ_2_" class="st0" d="M101.8,94.5h9.5c5.2,0,9.5,0,9.5-0.1c0-0.1-1.8-3.3-4-7.3c-2.2-4-4-7.3-4.1-7.4
	c-0.1-0.1,0.6-0.9,1.4-1.7c5.7-5.8,9.4-13.1,10.6-21.4c0.4-2.7,0.4-8.2,0-10.7c-1.1-6.7-3.5-12.4-7.4-17.6
	c-5.8-7.7-14.8-13-24.6-14.6c-2.1-0.3-7.4-0.5-9.5-0.2c-6.9,0.7-14,3.6-19.5,7.9c-2,1.6-5.3,4.9-6.7,6.8c-4.1,5.4-6.5,11.5-7.5,18.3
	c-0.3,2.2-0.3,7.8,0.1,10.1c1.9,12.6,9.6,23.2,20.8,28.7c4.6,2.2,9.2,3.5,15,3.9c1.6,0.1,5.8-0.1,5.8-0.2c0-0.1-1.8-3.4-4-7.4
	l-4-7.2l-1.7-0.5c-8.9-2.4-15.4-9.2-17.2-18.3c-0.4-2.2-0.5-5.9-0.1-8.2c1-5.6,4.2-11,8.5-14.3c6-4.6,13.1-6.2,20.3-4.4
	c4.2,1.1,7.7,3.1,10.8,6.2c3.3,3.4,5.5,7.6,6.4,12.4c0.4,2,0.4,5.9,0,8c-1.4,7.8-6.6,14.3-13.8,17.4c-1.5,0.6-4.4,1.5-5,1.5
	c-0.9,0-0.8,0.2,3.3,7.5L101.8,94.5z"/>
</svg>
