<svg xmlns="http://www.w3.org/2000/svg" xmlns:xlink="http://www.w3.org/1999/xlink" width="32" height="32" viewBox="0 0 32 32">
  <defs>
    <rect id="-services-app-a" width="31.977" height="31.977" rx="15.988"/>
    <filter id="-services-app-b" width="221.4%" height="241.7%" x="-60.7%" y="-54.2%" filterUnits="objectBoundingBox">
      <feOffset dy="2" in="SourceAlpha" result="shadowOffsetOuter1"/>
      <feGaussianBlur in="shadowOffsetOuter1" result="shadowBlurOuter1" stdDeviation="2.5"/>
      <feColorMatrix in="shadowBlurOuter1" result="shadowMatrixOuter1" values="0 0 0 0 0   0 0 0 0 0   0 0 0 0 0  0 0 0 0.2 0"/>
      <feMerge>
        <feMergeNode in="shadowMatrixOuter1"/>
        <feMergeNode in="SourceGraphic"/>
      </feMerge>
    </filter>
    <polygon id="-services-app-c" points="13.401 11 0 11 0 .273 13.401 .273"/>
  </defs>
  <g fill="none" fill-rule="evenodd">
    <use fill="#F84A4A" xlink:href="#-services-app-a"/>
    <g filter="url(#-services-app-b)" transform="translate(9.333 10)">
      <g transform="translate(0 .727)">
        <mask id="-services-app-d" fill="#fff">
          <use xlink:href="#-services-app-c"/>
        </mask>
        <path fill="#FFF" d="M0.9634,1.2734 L0.9994,10.0374 L12.4384,10.0004 L12.4014,1.2734 L0.9634,1.2734 Z M12.4384,11.0004 L0.9634,11.0004 C0.4324,11.0004 -0.0006,10.5684 -0.0006,10.0374 L-0.0006,1.2364 C-0.0006,0.7054 0.4324,0.2734 0.9634,0.2734 L12.4384,0.2734 C12.9694,0.2734 13.4014,0.7054 13.4014,1.2364 L13.4014,10.0374 C13.4014,10.5684 12.9694,11.0004 12.4384,11.0004 Z" mask="url(#-services-app-d)"/>
      </g>
      <path fill="#FFF" d="M11.1265,4.2422 C10.7665,4.2422 10.4745,3.9502 10.4745,3.5902 C10.4745,3.2302 10.7665,2.9382 11.1265,2.9382 C11.4865,2.9382 11.7775,3.2302 11.7775,3.5902 C11.7775,3.9502 11.4865,4.2422 11.1265,4.2422 M9.4345,4.2362 C9.0765,4.2362 8.7875,3.9472 8.7875,3.5902 C8.7875,3.2332 9.0765,2.9442 9.4345,2.9442 C9.7905,2.9442 10.0795,3.2332 10.0795,3.5902 C10.0795,3.9472 9.7905,4.2362 9.4345,4.2362 M7.7405,4.2412 C7.3815,4.2412 7.0905,3.9492 7.0905,3.5902 C7.0905,3.2302 7.3815,2.9392 7.7405,2.9392 C8.1005,2.9392 8.3925,3.2302 8.3925,3.5902 C8.3925,3.9492 8.1005,4.2412 7.7405,4.2412 M12.4395,1.5002 L0.9615,1.5002 C0.7065,1.5002 0.4995,1.7072 0.4995,1.9622 L0.4995,5.5912 L12.9015,5.5912 L12.9015,1.9622 C12.9015,1.7072 12.6945,1.5002 12.4395,1.5002"/>
    </g>
  </g>
</svg>
