<svg xmlns="http://www.w3.org/2000/svg" xmlns:xlink="http://www.w3.org/1999/xlink" width="82" height="84" viewBox="0 0 82 84">
    <defs>
        <circle id="a" cx="34.5" cy="34.5" r="33.915"/>
        <filter id="b" width="126.5%" height="126.5%" x="-13.3%" y="-13.3%" filterUnits="objectBoundingBox">
            <feOffset in="SourceAlpha" result="shadowOffsetOuter1"/>
            <feGaussianBlur in="shadowOffsetOuter1" result="shadowBlurOuter1" stdDeviation="3"/>
            <feColorMatrix in="shadowBlurOuter1" values="0 0 0 0 0 0 0 0 0 0 0 0 0 0 0 0 0 0 0.216768569 0"/>
        </filter>
    </defs>
    <g fill="none" fill-rule="evenodd">
        <g transform="translate(7 7)">
            <use fill="#000" filter="url(#b)" xlink:href="#a"/>
            <use fill="#FFF" xlink:href="#a"/>
        </g>
        <path d="M83.334 41.796c0 22.854-18.527 41.381-41.381 41.381S.572 64.65.572 41.797C.572 18.941 19.099.414 41.952.414c22.855 0 41.382 18.527 41.382 41.381zm-8.455-.475c0-18.587-15.067-33.654-33.654-33.654-18.586 0-33.653 15.067-33.653 33.654 0 18.586 15.067 33.653 33.653 33.653 18.587 0 33.654-15.067 33.654-33.653z"/>
    </g>
</svg>
