<svg xmlns="http://www.w3.org/2000/svg" xmlns:xlink="http://www.w3.org/1999/xlink" width="32" height="32" viewBox="0 0 32 32">
  <defs>
    <rect id="-storage-storage-a" width="31.626" height="31.624" rx="15.812"/>
    <filter id="-storage-storage-b" width="288.9%" height="230.8%" x="-94.4%" y="-50%" filterUnits="objectBoundingBox">
      <feOffset dy="2" in="SourceAlpha" result="shadowOffsetOuter1"/>
      <feGaussianBlur in="shadowOffsetOuter1" result="shadowBlurOuter1" stdDeviation="2.5"/>
      <feColorMatrix in="shadowBlurOuter1" result="shadowMatrixOuter1" values="0 0 0 0 0   0 0 0 0 0   0 0 0 0 0  0 0 0 0.2 0"/>
      <feMerge>
        <feMergeNode in="shadowMatrixOuter1"/>
        <feMergeNode in="SourceGraphic"/>
      </feMerge>
    </filter>
  </defs>
  <g fill="none" fill-rule="evenodd">
    <use fill="#1EC9C3" xlink:href="#-storage-storage-a"/>
    <g fill="#FFF" filter="url(#-storage-storage-b)" transform="translate(12 9)">
      <path d="M.0172 2.9322C.1962 2.0442 1.3842 1.3042 3.0152 1.0662 3.4062 1.0082 3.5482.9992 4.1042.9992 4.6602.9992 4.8022 1.0082 5.1932 1.0662 5.8392 1.1612 6.4362 1.3382 6.9232 1.5812 7.6402 1.9392 8.0862 2.4152 8.1912 2.9322 8.2202 3.0802 8.2092 3.3682 8.1682 3.4862 8.0772 3.7532 7.9652 3.9342 7.7632 4.1442 7.1822 4.7462 6.1312 5.1602 4.8412 5.2942 4.6662 5.3132 3.7942 5.3282 3.6342 5.3162 2.8382 5.2542 2.2282 5.1252 1.6542 4.8992.9562 4.6232.4572 4.2552.1902 3.8182.1352 3.7282.0842 3.6172.0392 3.4862-.0018 3.3682-.0118 3.0802.0172 2.9322M8.1471 11.1343C7.9501 11.5273 7.6151 11.8713 7.1741 12.1343 6.3061 12.6523 5.0081 12.9213 3.7061 12.8543 2.3621 12.7843 1.1681 12.3693.5151 11.7453.3281 11.5663.1351 11.3193.0521 11.1493L.0001 11.0433.0011 9.7873C.0011 8.5413.0021 8.5313.0241 8.6273.0841 8.8943.2551 9.1783.4901 9.4003.6501 9.5513.9981 9.7803 1.2851 9.9243 1.7721 10.1673 2.3691 10.3453 3.0151 10.4403 3.4061 10.4963 3.5481 10.5053 4.1041 10.5053 4.6601 10.5053 4.8021 10.4963 5.1931 10.4403 5.8351 10.3453 6.4331 10.1673 6.9171 9.9273 7.2061 9.7833 7.5371 9.5673 7.7111 9.4053 7.9471 9.1883 8.1241 8.8983 8.1841 8.6273 8.2061 8.5313 8.2071 8.5413 8.2081 9.7723L8.2091 11.0123 8.1471 11.1343z"/>
      <path d="M8.1236,7.3814 C7.9876,7.6404 7.9006,7.7624 7.7326,7.9304 C7.5626,8.1014 7.3946,8.2314 7.1746,8.3614 C6.3066,8.8804 5.0086,9.1504 3.7056,9.0824 C2.5216,9.0214 1.4386,8.6884 0.7526,8.1754 C0.5996,8.0604 0.3726,7.8384 0.2836,7.7154 C0.1926,7.5904 0.1176,7.4664 0.0546,7.3354 L-0.0004,7.2234 L0.0006,5.9914 C0.0016,4.7694 0.0026,4.7604 0.0236,4.8564 C0.0676,5.0514 0.1756,5.2644 0.3246,5.4494 C0.4116,5.5574 0.5526,5.6944 0.6306,5.7464 C0.6596,5.7664 0.7286,5.8154 0.7846,5.8554 C1.3466,6.2534 2.1226,6.5364 3.0156,6.6674 C3.4056,6.7254 3.5486,6.7334 4.1036,6.7334 C4.6596,6.7334 4.8026,6.7254 5.1926,6.6674 C5.8406,6.5724 6.4366,6.3954 6.9236,6.1524 C7.2096,6.0094 7.5476,5.7854 7.7206,5.6254 C7.9486,5.4134 8.1246,5.1214 8.1846,4.8564 C8.2056,4.7604 8.2066,4.7694 8.2076,5.9894 L8.2086,7.2194 L8.1236,7.3814 Z"/>
    </g>
  </g>
</svg>
