<svg xmlns="http://www.w3.org/2000/svg" xmlns:xlink="http://www.w3.org/1999/xlink" width="32" height="32" viewBox="0 0 32 32">
  <defs>
    <rect id="-server-cluster-a" width="30.97" height="30.965" x=".743" y=".708" rx="15.483"/>
    <filter id="-server-cluster-b" width="203.7%" height="228.6%" x="-50.9%" y="-46.4%" filterUnits="objectBoundingBox">
      <feOffset dy="2" in="SourceAlpha" result="shadowOffsetOuter1"/>
      <feGaussianBlur in="shadowOffsetOuter1" result="shadowBlurOuter1" stdDeviation="2.5"/>
      <feColorMatrix in="shadowBlurOuter1" result="shadowMatrixOuter1" values="0 0 0 0 0   0 0 0 0 0   0 0 0 0 0  0 0 0 0.2 0"/>
      <feMerge>
        <feMergeNode in="shadowMatrixOuter1"/>
        <feMergeNode in="SourceGraphic"/>
      </feMerge>
    </filter>
    <polygon id="-server-cluster-c" points=".226 13.462 11.082 13.462 11.082 .129 .226 .129"/>
    <polygon id="-server-cluster-e" points="0 13.871 16.692 13.871 16.692 .538 0 .538"/>
  </defs>
  <g fill="none" fill-rule="evenodd">
    <use fill="#88C780" xlink:href="#-server-cluster-a"/>
    <g filter="url(#-server-cluster-b)" transform="translate(8 9)">
      <g transform="translate(2.692 .41)">
        <mask id="-server-cluster-d" fill="#fff">
          <use xlink:href="#-server-cluster-c"/>
        </mask>
        <path fill="#FFF" d="M0.918669231,0.6678 C0.833592308,0.6678 0.764669231,0.737261538 0.764669231,0.822338462 L0.764669231,12.7686462 C0.764669231,12.8537231 0.833592308,12.9231846 0.918669231,12.9231846 L10.3891308,12.9231846 C10.4742077,12.9231846 10.5431308,12.8537231 10.5431308,12.7686462 L10.5431308,0.822338462 C10.5431308,0.737261538 10.4742077,0.6678 10.3891308,0.6678 L0.918669231,0.6678 Z M10.3891308,13.4616462 L0.918669231,13.4616462 C0.5369,13.4616462 0.226207692,13.1509538 0.226207692,12.7686462 L0.226207692,0.822338462 C0.226207692,0.440030769 0.5369,0.129338462 0.918669231,0.129338462 L10.3891308,0.129338462 C10.7709,0.129338462 11.0815923,0.440030769 11.0815923,0.822338462 L11.0815923,12.7686462 C11.0815923,13.1509538 10.7709,13.4616462 10.3891308,13.4616462 Z" mask="url(#-server-cluster-d)"/>
      </g>
      <mask id="-server-cluster-f" fill="#fff">
        <use xlink:href="#-server-cluster-e"/>
      </mask>
      <polygon fill="#FFF" points="3.188 3.631 13.505 3.631 13.505 3.093 3.188 3.093" mask="url(#-server-cluster-f)"/>
      <polygon fill="#FFF" points="3.188 6.003 13.505 6.003 13.505 5.465 3.188 5.465" mask="url(#-server-cluster-f)"/>
      <path fill="#FFF" d="M5.42564615,4.86720769 L4.51887692,4.86720769 C4.37026154,4.86720769 4.24964615,4.74659231 4.24964615,4.59797692 C4.24964615,4.44936154 4.37026154,4.32874615 4.51887692,4.32874615 L5.42564615,4.32874615 C5.57426154,4.32874615 5.69487692,4.44936154 5.69487692,4.59797692 C5.69487692,4.74659231 5.57426154,4.86720769 5.42564615,4.86720769" mask="url(#-server-cluster-f)"/>
      <polygon fill="#FFF" points="3.188 8.401 13.505 8.401 13.505 7.863 3.188 7.863" mask="url(#-server-cluster-f)"/>
      <path fill="#FFF" d="M5.42564615,7.26503077 L4.51887692,7.26503077 C4.37026154,7.26503077 4.24964615,7.14441538 4.24964615,6.9958 C4.24964615,6.84718462 4.37026154,6.72656923 4.51887692,6.72656923 L5.42564615,6.72656923 C5.57426154,6.72656923 5.69487692,6.84718462 5.69487692,6.9958 C5.69487692,7.14441538 5.57426154,7.26503077 5.42564615,7.26503077" mask="url(#-server-cluster-f)"/>
      <polygon fill="#FFF" points="3.188 10.876 13.505 10.876 13.505 10.338 3.188 10.338" mask="url(#-server-cluster-f)"/>
      <path fill="#FFF" d="M5.42564615 9.74017692L4.51887692 9.74017692C4.37026154 9.74017692 4.24964615 9.61956154 4.24964615 9.47094615 4.24964615 9.32233077 4.37026154 9.20171538 4.51887692 9.20171538L5.42564615 9.20171538C5.57426154 9.20171538 5.69487692 9.32233077 5.69487692 9.47094615 5.69487692 9.61956154 5.57426154 9.74017692 5.42564615 9.74017692M1.26753846 7.31704615L1.94761538 7.31704615 1.94761538 6.77858462 1.26753846 6.77858462 1.26753846 7.31704615zM.538461538 7.63043077L2.85169231 7.63043077 2.85169231 6.37096923.538461538 6.37096923.538461538 7.63043077zM0 8.16889231L3.39015385 8.16889231 3.39015385 5.83250769 0 5.83250769 0 8.16889231z" mask="url(#-server-cluster-f)"/>
      <path fill="#FFF" d="M1.26753846 9.17366154L1.94761538 9.17366154 1.94761538 8.6352 1.26753846 8.6352 1.26753846 9.17366154zM.538461538 9.48704615L2.85169231 9.48704615 2.85169231 8.16889231.538461538 8.16889231.538461538 9.48704615zM0 10.0255077L3.39015385 10.0255077 3.39015385 7.63043077 0 7.63043077 0 10.0255077zM1.26753846 5.51858462L1.94761538 5.51858462 1.94761538 4.98012308 1.26753846 4.98012308 1.26753846 5.51858462zM.538461538 5.83250769L2.85169231 5.83250769 2.85169231 4.59189231.538461538 4.59189231.538461538 5.83250769zM0 6.37096923L3.39015385 6.37096923 3.39015385 4.05343077 0 4.05343077 0 6.37096923z" mask="url(#-server-cluster-f)"/>
      <path fill="#FFF" d="M.538461538 10.0257231L.538461538 11.6841846C.538461538 11.7116462.559461538 11.7326462.586923077 11.7326462L2.85169231 11.7326462 2.85169231 10.0257231.538461538 10.0257231zM3.39015385 12.2711077L.586923077 12.2711077C.263307692 12.2711077 0 12.0078 0 11.6841846L0 9.48726154 3.39015385 9.48726154 3.39015385 12.2711077zM.538461538 4.05375385L2.85169231 4.05375385 2.85169231 2.67636923.586923077 2.67636923C.559461538 2.67636923.538461538 2.69736923.538461538 2.72483077L.538461538 4.05375385zM3.39015385 4.59221538L0 4.59221538 0 2.72483077C0 2.40175385.263307692 2.13790769.586923077 2.13790769L3.39015385 2.13790769 3.39015385 4.59221538zM13.8406692 4.05375385L16.1539 4.05375385 16.1539 2.72483077C16.1539 2.69736923 16.1329 2.67636923 16.1054385 2.67636923L13.8406692 2.67636923 13.8406692 4.05375385zM16.6923615 4.59221538L13.3022077 4.59221538 13.3022077 2.13790769 16.1054385 2.13790769C16.4290538 2.13790769 16.6923615 2.40175385 16.6923615 2.72483077L16.6923615 4.59221538zM13.8406154 7.63043077L16.1538462 7.63043077 16.1538462 6.37096923 13.8406154 6.37096923 13.8406154 7.63043077zM13.3021538 8.16889231L16.6923077 8.16889231 16.6923077 5.83250769 13.3021538 5.83250769 13.3021538 8.16889231z" mask="url(#-server-cluster-f)"/>
      <path fill="#FFF" d="M13.8406154 5.83250769L16.1538462 5.83250769 16.1538462 4.59189231 13.8406154 4.59189231 13.8406154 5.83250769zM13.3021538 6.37096923L16.6923077 6.37096923 16.6923077 4.05343077 13.3021538 4.05343077 13.3021538 6.37096923zM13.8406154 9.48704615L16.1538462 9.48704615 16.1538462 8.16889231 13.8406154 8.16889231 13.8406154 9.48704615zM13.3021538 10.0255077L16.6923077 10.0255077 16.6923077 7.63043077 13.3021538 7.63043077 13.3021538 10.0255077z" mask="url(#-server-cluster-f)"/>
      <path fill="#FFF" d="M13.8406692,11.7325923 L16.1054385,11.7325923 C16.1329,11.7325923 16.1539,11.7115923 16.1539,11.6841308 L16.1539,10.0256692 L13.8406692,10.0256692 L13.8406692,11.7325923 Z M16.1054385,12.2710538 L13.3022077,12.2710538 L13.3022077,9.48720769 L16.6923615,9.48720769 L16.6923615,11.6841308 C16.6923615,12.0077462 16.4290538,12.2710538 16.1054385,12.2710538 Z" mask="url(#-server-cluster-f)"/>
    </g>
  </g>
</svg>
