<svg xmlns="http://www.w3.org/2000/svg" xmlns:xlink="http://www.w3.org/1999/xlink" width="32" height="32" viewBox="0 0 32 32">
  <defs>
    <rect id="-groups-found-group-a" width="31.977" height="31.977" rx="15.988"/>
    <filter id="-groups-found-group-b" width="383.3%" height="254.5%" x="-141.7%" y="-59.1%" filterUnits="objectBoundingBox">
      <feOffset dy="2" in="SourceAlpha" result="shadowOffsetOuter1"/>
      <feGaussianBlur in="shadowOffsetOuter1" result="shadowBlurOuter1" stdDeviation="2.5"/>
      <feColorMatrix in="shadowBlurOuter1" result="shadowMatrixOuter1" values="0 0 0 0 0   0 0 0 0 0   0 0 0 0 0  0 0 0 0.2 0"/>
      <feMerge>
        <feMergeNode in="shadowMatrixOuter1"/>
        <feMergeNode in="SourceGraphic"/>
      </feMerge>
    </filter>
  </defs>
  <g fill="none" fill-rule="evenodd">
    <use fill="#F8C54A" xlink:href="#-groups-found-group-a"/>
    <g fill="#FFF" filter="url(#-groups-found-group-b)" transform="translate(13 11)">
      <path d="M1.339,9.4766 C1.339,9.3186 1.369,9.1696 1.429,9.0286 C1.488,8.8866 1.571,8.7656 1.677,8.6636 C1.781,8.5606 1.905,8.4786 2.046,8.4186 C2.187,8.3596 2.341,8.3296 2.509,8.3296 C2.671,8.3296 2.823,8.3596 2.967,8.4186 C3.11,8.4786 3.235,8.5606 3.34,8.6636 C3.445,8.7656 3.527,8.8866 3.588,9.0286 C3.648,9.1696 3.677,9.3186 3.677,9.4766 C3.677,9.6386 3.648,9.7886 3.588,9.9276 C3.527,10.0666 3.445,10.1866 3.34,10.2886 C3.235,10.3936 3.11,10.4726 2.967,10.5306 C2.823,10.5866 2.671,10.6166 2.509,10.6166 C2.341,10.6166 2.187,10.5866 2.046,10.5306 C1.905,10.4726 1.781,10.3936 1.677,10.2886 C1.571,10.1866 1.488,10.0666 1.429,9.9276 C1.369,9.7886 1.339,9.6386 1.339,9.4766 Z M0,1.0606 C0.171,0.9126 0.357,0.7736 0.556,0.6456 C0.754,0.5156 0.969,0.4036 1.2,0.3076 C1.432,0.2116 1.683,0.1376 1.953,0.0816 C2.223,0.0266 2.513,-0.0004 2.823,-0.0004 C3.254,-0.0004 3.644,0.0586 3.992,0.1746 C4.342,0.2926 4.64,0.4596 4.889,0.6766 C5.137,0.8946 5.329,1.1566 5.465,1.4616 C5.602,1.7676 5.669,2.1096 5.669,2.4876 C5.669,2.8506 5.618,3.1646 5.515,3.4306 C5.412,3.6956 5.284,3.9256 5.129,4.1226 C4.973,4.3186 4.802,4.4876 4.615,4.6306 C4.429,4.7746 4.253,4.9076 4.086,5.0326 C3.918,5.1566 3.774,5.2796 3.652,5.4006 C3.529,5.5236 3.455,5.6576 3.426,5.8056 L3.247,6.8306 L1.893,6.8306 L1.756,5.6696 C1.722,5.4406 1.751,5.2416 1.842,5.0726 C1.932,4.9016 2.055,4.7466 2.207,4.6056 C2.36,4.4646 2.53,4.3296 2.72,4.1976 C2.908,4.0646 3.085,3.9246 3.25,3.7746 C3.415,3.6236 3.554,3.4536 3.666,3.2646 C3.777,3.0776 3.835,2.8526 3.835,2.5946 C3.835,2.2806 3.726,2.0296 3.508,1.8426 C3.291,1.6556 3.003,1.5626 2.645,1.5626 C2.381,1.5626 2.161,1.5916 1.982,1.6486 C1.803,1.7056 1.649,1.7686 1.519,1.8386 C1.39,1.9076 1.28,1.9706 1.189,2.0296 C1.099,2.0856 1.013,2.1146 0.931,2.1146 C0.75,2.1146 0.613,2.0366 0.523,1.8766 L0,1.0606 Z"/>
    </g>
  </g>
</svg>
