<svg xmlns="http://www.w3.org/2000/svg" xmlns:xlink="http://www.w3.org/1999/xlink" width="45" height="45" viewBox="0 0 45 45">
  <defs>
    <path id="user-aborted-b" d="M26.471,25.2 L23.621,22.35 L26.471,19.5 L25.35,18.379 L22.5,21.229 L19.65,18.379 L18.529,19.5 L21.379,22.35 L18.529,25.2 L19.65,26.321 L22.5,23.471 L25.35,26.321 L26.471,25.2 Z M22.5,14.446 C23.9440072,14.446 25.2803272,14.8069964 26.509,15.529 C27.6996726,16.2130034 28.6369966,17.1503274 29.321,18.341 C30.0430036,19.5696728 30.404,20.9059928 30.404,22.35 C30.404,23.7940072 30.0430036,25.1303272 29.321,26.359 C28.6369966,27.5496726 27.6996726,28.4869966 26.509,29.171 C25.2803272,29.8930036 23.9440072,30.254 22.5,30.254 C21.0559928,30.254 19.7196728,29.8930036 18.491,29.171 C17.3003274,28.4743299 16.3630034,27.5306726 15.679,26.34 C14.9569964,25.1113272 14.596,23.7813405 14.596,22.35 C14.596,20.9186595 14.9569964,19.5886728 15.679,18.36 C16.3756701,17.1693274 17.3193274,16.2256701 18.51,15.529 C19.7386728,14.8069964 21.0686595,14.446 22.5,14.446 Z"/>
    <filter id="user-aborted-a" width="144.3%" height="144.3%" x="-22.1%" y="-15.8%" filterUnits="objectBoundingBox">
      <feOffset dy="1" in="SourceAlpha" result="shadowOffsetOuter1"/>
      <feGaussianBlur in="shadowOffsetOuter1" result="shadowBlurOuter1" stdDeviation="1"/>
      <feColorMatrix in="shadowBlurOuter1" values="0 0 0 0 0   0 0 0 0 0   0 0 0 0 0  0 0 0 0.1 0"/>
    </filter>
  </defs>
  <g fill="none" fill-rule="evenodd">
    <use fill="#000" filter="url(#user-aborted-a)" xlink:href="#user-aborted-b"/>
    <use fill="#F84A4A" xlink:href="#user-aborted-b"/>
  </g>
</svg>
